<svg xmlns="http://www.w3.org/2000/svg" xmlns:xlink="http://www.w3.org/1999/xlink" width="500" zoomAndPan="magnify" viewBox="0 0 375 374.999991" height="500" preserveAspectRatio="xMidYMid meet" version="1.0"><defs><g/><clipPath id="569ec02756"><path d="M 127.605469 162 L 158 162 L 158 178 L 127.605469 178 Z M 127.605469 162 " clip-rule="nonzero"/></clipPath><clipPath id="2b8a289414"><path d="M 157 102 L 247.605469 102 L 247.605469 206.96875 L 157 206.96875 Z M 157 102 " clip-rule="nonzero"/></clipPath><clipPath id="f431594a92"><path d="M 211 89.21875 L 236 89.21875 L 236 114 L 211 114 Z M 211 89.21875 " clip-rule="nonzero"/></clipPath></defs><g clip-path="url(#569ec02756)"><path fill="#399b53" d="M 134.117188 162.296875 L 127.652344 172.828125 C 139.703125 170.921875 149.507812 172.554688 157.046875 177.730469 C 151.570312 170.453125 143.921875 165.304688 134.109375 162.296875 Z M 134.117188 162.296875 " fill-opacity="1" fill-rule="evenodd"/></g><path fill="#000000" d="M 128.792969 156.78125 C 142.808594 158.664062 153.6875 165.550781 161.425781 177.425781 C 159.488281 165.433594 153.414062 155.882812 143.179688 148.753906 Z M 128.792969 156.78125 " fill-opacity="1" fill-rule="evenodd"/><path fill="#399b53" d="M 135.886719 137.074219 C 154.996094 149.398438 165.351562 166.363281 166.953125 187.945312 C 170.144531 170.921875 165.378906 155.667969 152.671875 142.179688 C 163.320312 139.125 171.523438 131.894531 177.273438 120.5 C 196.25 153.546875 190.207031 179.957031 159.136719 199.734375 C 198.488281 186.097656 204.394531 144.535156 176.863281 107.570312 C 170.730469 128.105469 157.078125 137.941406 135.894531 137.074219 Z M 135.886719 137.074219 " fill-opacity="1" fill-rule="evenodd"/><g clip-path="url(#2b8a289414)"><path fill="#000000" d="M 183.015625 102.988281 C 215.792969 144.464844 205.371094 191.449219 157.996094 207.039062 C 207.667969 204.167969 237.445312 172.4375 247.347656 111.847656 C 234.28125 129.5625 212.832031 126.613281 183.015625 102.988281 Z M 183.015625 102.988281 " fill-opacity="1" fill-rule="evenodd"/></g><g clip-path="url(#f431594a92)"><path fill="#000000" d="M 223.988281 113.195312 C 230.589844 113.195312 235.980469 107.8125 235.980469 101.199219 C 235.980469 94.597656 230.597656 89.207031 223.988281 89.207031 C 217.382812 89.207031 211.992188 94.589844 211.992188 101.199219 C 211.992188 107.804688 217.382812 113.195312 223.988281 113.195312 Z M 223.988281 113.195312 " fill-opacity="1" fill-rule="evenodd"/></g><path fill="#399b53" d="M 177.644531 151.996094 C 178.035156 152.679688 177.832031 153.351562 177.011719 154.007812 L 175.476562 151.339844 C 176.101562 151.234375 176.582031 151.234375 176.894531 151.332031 C 177.207031 151.4375 177.460938 151.652344 177.65625 151.984375 Z M 171.777344 149.074219 C 171.140625 149.183594 170.683594 149.183594 170.378906 149.074219 C 170.078125 148.957031 169.84375 148.761719 169.675781 148.46875 C 169.5 148.167969 169.453125 147.84375 169.539062 147.511719 C 169.628906 147.179688 169.871094 146.847656 170.300781 146.515625 L 171.785156 149.085938 Z M 180.339844 150.246094 C 179.726562 149.183594 178.90625 148.519531 177.878906 148.253906 C 176.855469 147.992188 175.507812 148.078125 173.835938 148.519531 L 172.175781 145.648438 C 172.636719 145.511719 173.125 145.433594 173.632812 145.402344 C 174.140625 145.375 174.65625 145.375 175.183594 145.414062 L 175.175781 142.453125 C 174.441406 142.386719 173.71875 142.40625 173.007812 142.503906 C 172.292969 142.601562 171.570312 142.796875 170.820312 143.089844 L 170.164062 141.945312 L 168.183594 143.089844 L 168.816406 144.191406 C 168.261719 144.601562 167.792969 145.042969 167.410156 145.53125 C 167.03125 146.007812 166.757812 146.515625 166.601562 147.042969 C 166.433594 147.570312 166.386719 148.097656 166.445312 148.644531 C 166.503906 149.183594 166.6875 149.71875 166.992188 150.257812 C 167.3125 150.8125 167.683594 151.253906 168.09375 151.585938 C 168.515625 151.90625 168.984375 152.132812 169.5 152.257812 C 170.019531 152.386719 170.605469 152.414062 171.25 152.347656 C 171.894531 152.289062 172.617188 152.152344 173.417969 151.945312 L 175.164062 154.972656 C 174.53125 155.1875 173.894531 155.304688 173.25 155.324219 C 172.617188 155.34375 171.921875 155.316406 171.171875 155.21875 L 170.9375 158.246094 C 171.84375 158.363281 172.78125 158.351562 173.71875 158.214844 C 174.667969 158.078125 175.585938 157.835938 176.464844 157.453125 L 177.578125 159.378906 L 179.558594 158.234375 L 178.476562 156.351562 C 179.050781 155.941406 179.519531 155.480469 179.902344 154.992188 C 180.28125 154.503906 180.546875 153.996094 180.710938 153.46875 C 180.878906 152.941406 180.925781 152.414062 180.878906 151.867188 C 180.828125 151.320312 180.644531 150.785156 180.339844 150.257812 Z M 180.339844 150.246094 " fill-opacity="1" fill-rule="evenodd"/><g fill="#000000" fill-opacity="1"><g transform="translate(62.372293, 254.965696)"><g><path d="M 21.75 -33.40625 L 21.75 -26.734375 L 10.046875 -26.734375 L 10.046875 -20.09375 L 20.859375 -20.09375 L 20.859375 -13.40625 L 10.046875 -13.40625 L 10.046875 0 L 2.4375 0 L 2.4375 -33.40625 Z M 21.75 -33.40625 "/></g></g></g><g fill="#000000" fill-opacity="1"><g transform="translate(84.526026, 254.965696)"><g><path d="M 3.109375 -32.359375 C 3.953125 -33.191406 4.953125 -33.609375 6.109375 -33.609375 C 7.273438 -33.609375 8.273438 -33.191406 9.109375 -32.359375 C 9.953125 -31.523438 10.375 -30.523438 10.375 -29.359375 C 10.375 -28.203125 9.953125 -27.203125 9.109375 -26.359375 C 8.273438 -25.523438 7.273438 -25.109375 6.109375 -25.109375 C 4.953125 -25.109375 3.953125 -25.523438 3.109375 -26.359375 C 2.273438 -27.203125 1.859375 -28.203125 1.859375 -29.359375 C 1.859375 -30.523438 2.273438 -31.523438 3.109375 -32.359375 Z M 2.4375 -20.78125 L 2.4375 0 L 9.59375 0 L 9.59375 -20.78125 Z M 2.4375 -20.78125 "/></g></g></g><g fill="#000000" fill-opacity="1"><g transform="translate(95.947121, 254.965696)"><g><path d="M 11.46875 -21.390625 C 12.65625 -21.390625 13.828125 -21.253906 14.984375 -20.984375 C 16.140625 -20.710938 17.003906 -20.441406 17.578125 -20.171875 L 18.421875 -19.765625 L 16.078125 -15.0625 C 14.460938 -15.925781 12.925781 -16.359375 11.46875 -16.359375 C 10.65625 -16.359375 10.078125 -16.269531 9.734375 -16.09375 C 9.398438 -15.914062 9.234375 -15.585938 9.234375 -15.109375 C 9.234375 -14.992188 9.242188 -14.882812 9.265625 -14.78125 C 9.296875 -14.675781 9.351562 -14.578125 9.4375 -14.484375 C 9.519531 -14.390625 9.59375 -14.304688 9.65625 -14.234375 C 9.726562 -14.171875 9.84375 -14.097656 10 -14.015625 C 10.164062 -13.929688 10.296875 -13.867188 10.390625 -13.828125 C 10.484375 -13.785156 10.632812 -13.722656 10.84375 -13.640625 C 11.0625 -13.566406 11.222656 -13.507812 11.328125 -13.46875 C 11.441406 -13.425781 11.625 -13.363281 11.875 -13.28125 C 12.132812 -13.195312 12.332031 -13.144531 12.46875 -13.125 C 13.3125 -12.875 14.039062 -12.597656 14.65625 -12.296875 C 15.28125 -12.003906 15.9375 -11.601562 16.625 -11.09375 C 17.3125 -10.582031 17.84375 -9.9375 18.21875 -9.15625 C 18.601562 -8.375 18.796875 -7.484375 18.796875 -6.484375 C 18.796875 -1.753906 15.515625 0.609375 8.953125 0.609375 C 7.460938 0.609375 6.050781 0.378906 4.71875 -0.078125 C 3.382812 -0.535156 2.421875 -0.992188 1.828125 -1.453125 L 0.9375 -2.1875 L 3.84375 -7.09375 C 4.0625 -6.894531 4.34375 -6.664062 4.6875 -6.40625 C 5.039062 -6.15625 5.675781 -5.804688 6.59375 -5.359375 C 7.519531 -4.921875 8.316406 -4.703125 8.984375 -4.703125 C 10.472656 -4.703125 11.21875 -5.203125 11.21875 -6.203125 C 11.21875 -6.660156 11.023438 -7.015625 10.640625 -7.265625 C 10.265625 -7.523438 9.625 -7.816406 8.71875 -8.140625 C 7.820312 -8.460938 7.113281 -8.757812 6.59375 -9.03125 C 5.300781 -9.707031 4.273438 -10.46875 3.515625 -11.3125 C 2.765625 -12.164062 2.390625 -13.296875 2.390625 -14.703125 C 2.390625 -16.804688 3.207031 -18.445312 4.84375 -19.625 C 6.476562 -20.800781 8.6875 -21.390625 11.46875 -21.390625 Z M 11.46875 -21.390625 "/></g></g></g><g fill="#000000" fill-opacity="1"><g transform="translate(115.06331, 254.965696)"><g><path d="M 13.484375 -15.515625 C 12.140625 -15.515625 10.976562 -15.015625 10 -14.015625 C 9.03125 -13.015625 8.546875 -11.8125 8.546875 -10.40625 C 8.546875 -8.976562 9.03125 -7.765625 10 -6.765625 C 10.976562 -5.765625 12.140625 -5.265625 13.484375 -5.265625 C 14.128906 -5.265625 14.742188 -5.34375 15.328125 -5.5 C 15.910156 -5.664062 16.335938 -5.832031 16.609375 -6 L 16.96875 -6.234375 L 19.40625 -1.25 C 19.207031 -1.113281 18.941406 -0.945312 18.609375 -0.75 C 18.273438 -0.550781 17.503906 -0.273438 16.296875 0.078125 C 15.097656 0.429688 13.8125 0.609375 12.4375 0.609375 C 9.382812 0.609375 6.703125 -0.460938 4.390625 -2.609375 C 2.085938 -4.753906 0.9375 -7.328125 0.9375 -10.328125 C 0.9375 -13.347656 2.085938 -15.945312 4.390625 -18.125 C 6.703125 -20.300781 9.382812 -21.390625 12.4375 -21.390625 C 13.8125 -21.390625 15.078125 -21.222656 16.234375 -20.890625 C 17.398438 -20.566406 18.226562 -20.242188 18.71875 -19.921875 L 19.40625 -19.4375 L 16.96875 -14.546875 C 16.082031 -15.191406 14.921875 -15.515625 13.484375 -15.515625 Z M 13.484375 -15.515625 "/></g></g></g><g fill="#000000" fill-opacity="1"><g transform="translate(134.139009, 254.965696)"><g><path d="M 3.84375 -2.5625 C 1.90625 -4.6875 0.9375 -7.285156 0.9375 -10.359375 C 0.9375 -13.441406 1.90625 -16.050781 3.84375 -18.1875 C 5.789062 -20.320312 8.265625 -21.390625 11.265625 -21.390625 C 14.015625 -21.390625 16.28125 -20.523438 18.0625 -18.796875 L 18.0625 -20.78125 L 25.234375 -20.78125 L 25.234375 0 L 18.140625 0 L 18.140625 -2.34375 L 18.0625 -2.34375 C 16.28125 -0.375 14.015625 0.609375 11.265625 0.609375 C 8.265625 0.609375 5.789062 -0.445312 3.84375 -2.5625 Z M 9.9375 -13.890625 C 9.007812 -12.972656 8.546875 -11.796875 8.546875 -10.359375 C 8.546875 -8.929688 8.988281 -7.765625 9.875 -6.859375 C 10.769531 -5.960938 11.945312 -5.515625 13.40625 -5.515625 C 14.8125 -5.515625 15.960938 -5.972656 16.859375 -6.890625 C 17.765625 -7.804688 18.21875 -8.96875 18.21875 -10.375 C 18.21875 -11.800781 17.753906 -12.972656 16.828125 -13.890625 C 15.898438 -14.804688 14.757812 -15.265625 13.40625 -15.265625 C 12.03125 -15.265625 10.875 -14.804688 9.9375 -13.890625 Z M 9.9375 -13.890625 "/></g></g></g><g fill="#000000" fill-opacity="1"><g transform="translate(160.990808, 254.965696)"><g><path d="M 2.4375 0 L 2.4375 -34.828125 L 9.59375 -34.828125 L 9.59375 0 Z M 2.4375 0 "/></g></g></g><g fill="#000000" fill-opacity="1"><g transform="translate(172.209402, 254.965696)"><g/></g></g><g fill="#000000" fill-opacity="1"><g transform="translate(182.455981, 254.965696)"><g><path d="M 21.75 -33.40625 L 21.75 -26.734375 L 10.046875 -26.734375 L 10.046875 -20.09375 L 20.859375 -20.09375 L 20.859375 -13.40625 L 10.046875 -13.40625 L 10.046875 0 L 2.4375 0 L 2.4375 -33.40625 Z M 21.75 -33.40625 "/></g></g></g><g fill="#000000" fill-opacity="1"><g transform="translate(204.609716, 254.965696)"><g><path d="M 2.4375 0 L 2.4375 -20.78125 L 9.59375 -20.78125 L 9.59375 -17.78125 L 9.671875 -17.78125 C 9.734375 -17.882812 9.820312 -18.015625 9.9375 -18.171875 C 10.0625 -18.335938 10.328125 -18.625 10.734375 -19.03125 C 11.140625 -19.4375 11.570312 -19.800781 12.03125 -20.125 C 12.488281 -20.445312 13.082031 -20.738281 13.8125 -21 C 14.539062 -21.257812 15.28125 -21.390625 16.03125 -21.390625 C 16.820312 -21.390625 17.59375 -21.28125 18.34375 -21.0625 C 19.101562 -20.84375 19.65625 -20.625 20 -20.40625 L 20.578125 -20.09375 L 17.578125 -14.015625 C 16.679688 -14.765625 15.4375 -15.140625 13.84375 -15.140625 C 12.988281 -15.140625 12.25 -14.953125 11.625 -14.578125 C 11 -14.203125 10.554688 -13.742188 10.296875 -13.203125 C 10.046875 -12.660156 9.863281 -12.203125 9.75 -11.828125 C 9.644531 -11.453125 9.59375 -11.15625 9.59375 -10.9375 L 9.59375 0 Z M 2.4375 0 "/></g></g></g><g fill="#000000" fill-opacity="1"><g transform="translate(223.968907, 254.965696)"><g><path d="M 3.109375 -32.359375 C 3.953125 -33.191406 4.953125 -33.609375 6.109375 -33.609375 C 7.273438 -33.609375 8.273438 -33.191406 9.109375 -32.359375 C 9.953125 -31.523438 10.375 -30.523438 10.375 -29.359375 C 10.375 -28.203125 9.953125 -27.203125 9.109375 -26.359375 C 8.273438 -25.523438 7.273438 -25.109375 6.109375 -25.109375 C 4.953125 -25.109375 3.953125 -25.523438 3.109375 -26.359375 C 2.273438 -27.203125 1.859375 -28.203125 1.859375 -29.359375 C 1.859375 -30.523438 2.273438 -31.523438 3.109375 -32.359375 Z M 2.4375 -20.78125 L 2.4375 0 L 9.59375 0 L 9.59375 -20.78125 Z M 2.4375 -20.78125 "/></g></g></g><g fill="#000000" fill-opacity="1"><g transform="translate(235.390004, 254.965696)"><g><path d="M 23.453125 -9.390625 L 8.390625 -9.390625 C 8.390625 -7.929688 8.859375 -6.851562 9.796875 -6.15625 C 10.742188 -5.457031 11.769531 -5.109375 12.875 -5.109375 C 14.039062 -5.109375 14.957031 -5.257812 15.625 -5.5625 C 16.300781 -5.875 17.070312 -6.488281 17.9375 -7.40625 L 23.125 -4.8125 C 20.96875 -1.195312 17.378906 0.609375 12.359375 0.609375 C 9.222656 0.609375 6.535156 -0.460938 4.296875 -2.609375 C 2.054688 -4.753906 0.9375 -7.335938 0.9375 -10.359375 C 0.9375 -13.390625 2.054688 -15.984375 4.296875 -18.140625 C 6.535156 -20.304688 9.222656 -21.390625 12.359375 -21.390625 C 15.648438 -21.390625 18.328125 -20.4375 20.390625 -18.53125 C 22.453125 -16.625 23.484375 -13.90625 23.484375 -10.375 C 23.484375 -9.882812 23.472656 -9.554688 23.453125 -9.390625 Z M 8.59375 -13.359375 L 16.484375 -13.359375 C 16.316406 -14.441406 15.890625 -15.269531 15.203125 -15.84375 C 14.515625 -16.425781 13.632812 -16.71875 12.5625 -16.71875 C 11.363281 -16.71875 10.414062 -16.40625 9.71875 -15.78125 C 9.019531 -15.164062 8.644531 -14.359375 8.59375 -13.359375 Z M 8.59375 -13.359375 "/></g></g></g><g fill="#000000" fill-opacity="1"><g transform="translate(259.001757, 254.965696)"><g><path d="M 2.4375 0 L 2.4375 -20.78125 L 9.59375 -20.78125 L 9.59375 -18.59375 L 9.671875 -18.59375 C 11.535156 -20.457031 13.523438 -21.390625 15.640625 -21.390625 C 16.660156 -21.390625 17.675781 -21.253906 18.6875 -20.984375 C 19.695312 -20.710938 20.664062 -20.289062 21.59375 -19.71875 C 22.53125 -19.15625 23.289062 -18.351562 23.875 -17.3125 C 24.457031 -16.269531 24.75 -15.0625 24.75 -13.6875 L 24.75 0 L 17.578125 0 L 17.578125 -11.75 C 17.578125 -12.820312 17.234375 -13.765625 16.546875 -14.578125 C 15.859375 -15.390625 14.957031 -15.796875 13.84375 -15.796875 C 12.769531 -15.796875 11.789062 -15.375 10.90625 -14.53125 C 10.03125 -13.695312 9.59375 -12.769531 9.59375 -11.75 L 9.59375 0 Z M 2.4375 0 "/></g></g></g><g fill="#000000" fill-opacity="1"><g transform="translate(284.96253, 254.965696)"><g><path d="M 3.84375 -2.5625 C 1.90625 -4.6875 0.9375 -7.285156 0.9375 -10.359375 C 0.9375 -13.441406 1.90625 -16.050781 3.84375 -18.1875 C 5.789062 -20.320312 8.265625 -21.390625 11.265625 -21.390625 C 14.015625 -21.390625 16.28125 -20.523438 18.0625 -18.796875 L 18.0625 -34.828125 L 25.234375 -34.828125 L 25.234375 0 L 18.140625 0 L 18.140625 -2.34375 L 18.0625 -2.34375 C 16.28125 -0.375 14.015625 0.609375 11.265625 0.609375 C 8.265625 0.609375 5.789062 -0.445312 3.84375 -2.5625 Z M 9.9375 -13.890625 C 9.007812 -12.972656 8.546875 -11.796875 8.546875 -10.359375 C 8.546875 -8.929688 8.988281 -7.765625 9.875 -6.859375 C 10.769531 -5.960938 11.945312 -5.515625 13.40625 -5.515625 C 14.8125 -5.515625 15.960938 -5.972656 16.859375 -6.890625 C 17.765625 -7.804688 18.21875 -8.96875 18.21875 -10.375 C 18.21875 -11.800781 17.753906 -12.972656 16.828125 -13.890625 C 15.898438 -14.804688 14.757812 -15.265625 13.40625 -15.265625 C 12.03125 -15.265625 10.875 -14.804688 9.9375 -13.890625 Z M 9.9375 -13.890625 "/></g></g></g><g fill="#399b53" fill-opacity="1"><g transform="translate(74.427332, 282.951403)"><g><path d="M 6.71875 -3.859375 L 6.71875 -2.359375 C 6.539062 -1.546875 6.148438 -0.925781 5.546875 -0.5 C 4.953125 -0.0820312 4.285156 0.125 3.546875 0.125 C 2.617188 0.125 1.828125 -0.21875 1.171875 -0.90625 C 0.515625 -1.601562 0.1875 -2.445312 0.1875 -3.4375 C 0.1875 -4.4375 0.503906 -5.28125 1.140625 -5.96875 C 1.785156 -6.664062 2.585938 -7.015625 3.546875 -7.015625 C 4.660156 -7.015625 5.546875 -6.617188 6.203125 -5.828125 L 5.171875 -4.703125 C 4.804688 -5.296875 4.296875 -5.59375 3.640625 -5.59375 C 3.148438 -5.59375 2.734375 -5.378906 2.390625 -4.953125 C 2.054688 -4.535156 1.890625 -4.03125 1.890625 -3.4375 C 1.890625 -2.851562 2.054688 -2.351562 2.390625 -1.9375 C 2.734375 -1.519531 3.148438 -1.3125 3.640625 -1.3125 C 4.035156 -1.3125 4.378906 -1.429688 4.671875 -1.671875 C 4.972656 -1.921875 5.125 -2.242188 5.125 -2.640625 L 3.546875 -2.640625 L 3.546875 -3.859375 Z M 6.71875 -3.859375 "/></g></g></g><g fill="#399b53" fill-opacity="1"><g transform="translate(86.149721, 282.951403)"><g><path d="M 4.4375 -6.890625 L 4.4375 -5.5 L 2.0625 -5.5 L 2.0625 -4.140625 L 4.34375 -4.140625 L 4.34375 -2.765625 L 2.0625 -2.765625 L 2.0625 -1.375 L 4.4375 -1.375 L 4.4375 0 L 0.5 0 L 0.5 -6.890625 Z M 4.4375 -6.890625 "/></g></g></g><g fill="#399b53" fill-opacity="1"><g transform="translate(95.793635, 282.951403)"><g><path d="M 0.0625 -5.5 L 0.0625 -6.890625 L 4.90625 -6.890625 L 4.90625 -5.5 L 3.265625 -5.5 L 3.265625 0 L 1.703125 0 L 1.703125 -5.5 Z M 0.0625 -5.5 "/></g></g></g><g fill="#399b53" fill-opacity="1"><g transform="translate(105.571107, 282.951403)"><g/></g></g><g fill="#399b53" fill-opacity="1"><g transform="translate(112.652405, 282.951403)"><g><path d="M -0.25 -6.890625 L 1.640625 -6.890625 L 3.078125 -4.6875 L 4.5 -6.890625 L 6.390625 -6.890625 L 3.859375 -3.09375 L 3.859375 0 L 2.28125 0 L 2.28125 -3.09375 Z M -0.25 -6.890625 "/></g></g></g><g fill="#399b53" fill-opacity="1"><g transform="translate(123.598496, 282.951403)"><g><path d="M 4 -6.890625 L 6.78125 0 L 5.09375 0 L 4.578125 -1.375 L 1.953125 -1.375 L 1.453125 0 L -0.234375 0 L 2.546875 -6.890625 Z M 4.046875 -2.75 L 3.28125 -4.75 L 3.265625 -4.75 L 2.5 -2.75 Z M 4.046875 -2.75 "/></g></g></g><g fill="#399b53" fill-opacity="1"><g transform="translate(134.945253, 282.951403)"><g/></g></g><g fill="#399b53" fill-opacity="1"><g transform="translate(142.026549, 282.951403)"><g><path d="M 6.1875 0 L 5.859375 -4.078125 L 5.828125 -4.078125 L 4.40625 -0.046875 L 3.484375 -0.046875 L 2.0625 -4.078125 L 2.03125 -4.078125 L 1.703125 0 L 0.140625 0 L 0.75 -6.890625 L 2.421875 -6.890625 L 3.953125 -2.90625 L 5.46875 -6.890625 L 7.140625 -6.890625 L 7.765625 0 Z M 6.1875 0 "/></g></g></g><g fill="#399b53" fill-opacity="1"><g transform="translate(154.725562, 282.951403)"><g><path d="M 0.1875 -3.453125 C 0.1875 -4.441406 0.523438 -5.28125 1.203125 -5.96875 C 1.890625 -6.664062 2.707031 -7.015625 3.65625 -7.015625 C 4.625 -7.015625 5.441406 -6.671875 6.109375 -5.984375 C 6.785156 -5.296875 7.125 -4.453125 7.125 -3.453125 C 7.125 -2.441406 6.789062 -1.59375 6.125 -0.90625 C 5.46875 -0.21875 4.644531 0.125 3.65625 0.125 C 2.65625 0.125 1.828125 -0.210938 1.171875 -0.890625 C 0.515625 -1.578125 0.1875 -2.429688 0.1875 -3.453125 Z M 1.890625 -3.453125 C 1.890625 -3.085938 1.941406 -2.753906 2.046875 -2.453125 C 2.160156 -2.160156 2.351562 -1.910156 2.625 -1.703125 C 2.90625 -1.492188 3.25 -1.390625 3.65625 -1.390625 C 4.238281 -1.390625 4.679688 -1.585938 4.984375 -1.984375 C 5.285156 -2.390625 5.4375 -2.878906 5.4375 -3.453125 C 5.4375 -4.003906 5.28125 -4.484375 4.96875 -4.890625 C 4.664062 -5.296875 4.226562 -5.5 3.65625 -5.5 C 3.09375 -5.5 2.65625 -5.296875 2.34375 -4.890625 C 2.039062 -4.484375 1.890625 -4.003906 1.890625 -3.453125 Z M 1.890625 -3.453125 "/></g></g></g><g fill="#399b53" fill-opacity="1"><g transform="translate(166.848616, 282.951403)"><g><path d="M 2.0625 -4.265625 L 2.0625 0 L 0.5 0 L 0.5 -6.890625 L 2.0625 -6.890625 L 4.8125 -2.609375 L 4.828125 -2.609375 L 4.828125 -6.890625 L 6.390625 -6.890625 L 6.390625 0 L 4.828125 0 L 2.078125 -4.265625 Z M 2.0625 -4.265625 "/></g></g></g><g fill="#399b53" fill-opacity="1"><g transform="translate(178.545956, 282.951403)"><g><path d="M 4.4375 -6.890625 L 4.4375 -5.5 L 2.0625 -5.5 L 2.0625 -4.140625 L 4.34375 -4.140625 L 4.34375 -2.765625 L 2.0625 -2.765625 L 2.0625 -1.375 L 4.4375 -1.375 L 4.4375 0 L 0.5 0 L 0.5 -6.890625 Z M 4.4375 -6.890625 "/></g></g></g><g fill="#399b53" fill-opacity="1"><g transform="translate(188.189868, 282.951403)"><g><path d="M -0.25 -6.890625 L 1.640625 -6.890625 L 3.078125 -4.6875 L 4.5 -6.890625 L 6.390625 -6.890625 L 3.859375 -3.09375 L 3.859375 0 L 2.28125 0 L 2.28125 -3.09375 Z M -0.25 -6.890625 "/></g></g></g><g fill="#399b53" fill-opacity="1"><g transform="translate(199.135959, 282.951403)"><g/></g></g><g fill="#399b53" fill-opacity="1"><g transform="translate(206.217255, 282.951403)"><g><path d="M 5.796875 -6.890625 L 5.796875 -2.4375 C 5.796875 -1.59375 5.566406 -0.953125 5.109375 -0.515625 C 4.648438 -0.0859375 3.976562 0.125 3.09375 0.125 C 2.21875 0.125 1.550781 -0.0859375 1.09375 -0.515625 C 0.644531 -0.953125 0.421875 -1.59375 0.421875 -2.4375 L 0.421875 -6.890625 L 1.984375 -6.890625 L 1.984375 -2.90625 C 1.984375 -2.34375 2.070312 -1.953125 2.25 -1.734375 C 2.425781 -1.523438 2.710938 -1.421875 3.109375 -1.421875 C 3.503906 -1.421875 3.785156 -1.523438 3.953125 -1.734375 C 4.128906 -1.953125 4.21875 -2.34375 4.21875 -2.90625 L 4.21875 -6.890625 Z M 5.796875 -6.890625 "/></g></g></g><g fill="#399b53" fill-opacity="1"><g transform="translate(217.230124, 282.951403)"><g><path d="M 0.5 -6.890625 L 3.015625 -6.890625 C 3.710938 -6.890625 4.273438 -6.707031 4.703125 -6.34375 C 5.140625 -5.976562 5.359375 -5.453125 5.359375 -4.765625 C 5.359375 -4.078125 5.140625 -3.535156 4.703125 -3.140625 C 4.265625 -2.742188 3.703125 -2.546875 3.015625 -2.546875 L 2.0625 -2.546875 L 2.0625 0 L 0.5 0 Z M 2.0625 -3.8125 L 2.515625 -3.8125 C 2.859375 -3.8125 3.144531 -3.878906 3.375 -4.015625 C 3.601562 -4.160156 3.71875 -4.394531 3.71875 -4.71875 C 3.71875 -5.039062 3.601562 -5.269531 3.375 -5.40625 C 3.144531 -5.550781 2.859375 -5.625 2.515625 -5.625 L 2.0625 -5.625 Z M 2.0625 -3.8125 "/></g></g></g><g fill="#399b53" fill-opacity="1"><g transform="translate(227.591913, 282.951403)"><g><path d="M 1.453125 -1.78125 C 1.722656 -1.78125 1.945312 -1.6875 2.125 -1.5 C 2.3125 -1.3125 2.40625 -1.085938 2.40625 -0.828125 C 2.40625 -0.00390625 1.941406 0.789062 1.015625 1.5625 L 0.578125 1.21875 C 0.617188 1.1875 0.664062 1.132812 0.71875 1.0625 C 0.78125 1 0.867188 0.863281 0.984375 0.65625 C 1.097656 0.457031 1.175781 0.253906 1.21875 0.046875 C 1.007812 -0.00390625 0.835938 -0.109375 0.703125 -0.265625 C 0.566406 -0.421875 0.5 -0.609375 0.5 -0.828125 C 0.5 -1.085938 0.59375 -1.3125 0.78125 -1.5 C 0.96875 -1.6875 1.191406 -1.78125 1.453125 -1.78125 Z M 1.453125 -1.78125 "/></g></g></g><g fill="#399b53" fill-opacity="1"><g transform="translate(235.307611, 282.951403)"><g/></g></g><g fill="#399b53" fill-opacity="1"><g transform="translate(242.388908, 282.951403)"><g><path d="M 2.0625 -4.265625 L 2.0625 0 L 0.5 0 L 0.5 -6.890625 L 2.0625 -6.890625 L 4.8125 -2.609375 L 4.828125 -2.609375 L 4.828125 -6.890625 L 6.390625 -6.890625 L 6.390625 0 L 4.828125 0 L 2.078125 -4.265625 Z M 2.0625 -4.265625 "/></g></g></g><g fill="#399b53" fill-opacity="1"><g transform="translate(254.086248, 282.951403)"><g><path d="M 0.1875 -3.453125 C 0.1875 -4.441406 0.523438 -5.28125 1.203125 -5.96875 C 1.890625 -6.664062 2.707031 -7.015625 3.65625 -7.015625 C 4.625 -7.015625 5.441406 -6.671875 6.109375 -5.984375 C 6.785156 -5.296875 7.125 -4.453125 7.125 -3.453125 C 7.125 -2.441406 6.789062 -1.59375 6.125 -0.90625 C 5.46875 -0.21875 4.644531 0.125 3.65625 0.125 C 2.65625 0.125 1.828125 -0.210938 1.171875 -0.890625 C 0.515625 -1.578125 0.1875 -2.429688 0.1875 -3.453125 Z M 1.890625 -3.453125 C 1.890625 -3.085938 1.941406 -2.753906 2.046875 -2.453125 C 2.160156 -2.160156 2.351562 -1.910156 2.625 -1.703125 C 2.90625 -1.492188 3.25 -1.390625 3.65625 -1.390625 C 4.238281 -1.390625 4.679688 -1.585938 4.984375 -1.984375 C 5.285156 -2.390625 5.4375 -2.878906 5.4375 -3.453125 C 5.4375 -4.003906 5.28125 -4.484375 4.96875 -4.890625 C 4.664062 -5.296875 4.226562 -5.5 3.65625 -5.5 C 3.09375 -5.5 2.65625 -5.296875 2.34375 -4.890625 C 2.039062 -4.484375 1.890625 -4.003906 1.890625 -3.453125 Z M 1.890625 -3.453125 "/></g></g></g><g fill="#399b53" fill-opacity="1"><g transform="translate(266.20931, 282.951403)"><g><path d="M 0.0625 -5.5 L 0.0625 -6.890625 L 4.90625 -6.890625 L 4.90625 -5.5 L 3.265625 -5.5 L 3.265625 0 L 1.703125 0 L 1.703125 -5.5 Z M 0.0625 -5.5 "/></g></g></g><g fill="#399b53" fill-opacity="1"><g transform="translate(275.986789, 282.951403)"><g/></g></g><g fill="#399b53" fill-opacity="1"><g transform="translate(283.068085, 282.951403)"><g><path d="M -0.25 -6.890625 L 1.640625 -6.890625 L 3.078125 -4.6875 L 4.5 -6.890625 L 6.390625 -6.890625 L 3.859375 -3.09375 L 3.859375 0 L 2.28125 0 L 2.28125 -3.09375 Z M -0.25 -6.890625 "/></g></g></g><g fill="#399b53" fill-opacity="1"><g transform="translate(294.014183, 282.951403)"><g><path d="M 4 -6.890625 L 6.78125 0 L 5.09375 0 L 4.578125 -1.375 L 1.953125 -1.375 L 1.453125 0 L -0.234375 0 L 2.546875 -6.890625 Z M 4.046875 -2.75 L 3.28125 -4.75 L 3.265625 -4.75 L 2.5 -2.75 Z M 4.046875 -2.75 "/></g></g></g><g fill="#399b53" fill-opacity="1"><g transform="translate(144.364112, 294.473868)"><g><path d="M 4.484375 -6.890625 L 4.484375 -5.5 L 2.0625 -5.5 L 2.0625 -4.140625 L 4.296875 -4.140625 L 4.296875 -2.765625 L 2.0625 -2.765625 L 2.0625 0 L 0.5 0 L 0.5 -6.890625 Z M 4.484375 -6.890625 "/></g></g></g><g fill="#399b53" fill-opacity="1"><g transform="translate(153.899514, 294.473868)"><g><path d="M 5.796875 -6.890625 L 5.796875 -2.4375 C 5.796875 -1.59375 5.566406 -0.953125 5.109375 -0.515625 C 4.648438 -0.0859375 3.976562 0.125 3.09375 0.125 C 2.21875 0.125 1.550781 -0.0859375 1.09375 -0.515625 C 0.644531 -0.953125 0.421875 -1.59375 0.421875 -2.4375 L 0.421875 -6.890625 L 1.984375 -6.890625 L 1.984375 -2.90625 C 1.984375 -2.34375 2.070312 -1.953125 2.25 -1.734375 C 2.425781 -1.523438 2.710938 -1.421875 3.109375 -1.421875 C 3.503906 -1.421875 3.785156 -1.523438 3.953125 -1.734375 C 4.128906 -1.953125 4.21875 -2.34375 4.21875 -2.90625 L 4.21875 -6.890625 Z M 5.796875 -6.890625 "/></g></g></g><g fill="#399b53" fill-opacity="1"><g transform="translate(164.912377, 294.473868)"><g><path d="M 2.0625 -4.265625 L 2.0625 0 L 0.5 0 L 0.5 -6.890625 L 2.0625 -6.890625 L 4.8125 -2.609375 L 4.828125 -2.609375 L 4.828125 -6.890625 L 6.390625 -6.890625 L 6.390625 0 L 4.828125 0 L 2.078125 -4.265625 Z M 2.0625 -4.265625 "/></g></g></g><g fill="#399b53" fill-opacity="1"><g transform="translate(176.60972, 294.473868)"><g><path d="M 2.0625 -4.265625 L 2.0625 0 L 0.5 0 L 0.5 -6.890625 L 2.0625 -6.890625 L 4.8125 -2.609375 L 4.828125 -2.609375 L 4.828125 -6.890625 L 6.390625 -6.890625 L 6.390625 0 L 4.828125 0 L 2.078125 -4.265625 Z M 2.0625 -4.265625 "/></g></g></g><g fill="#399b53" fill-opacity="1"><g transform="translate(188.307062, 294.473868)"><g><path d="M -0.25 -6.890625 L 1.640625 -6.890625 L 3.078125 -4.6875 L 4.5 -6.890625 L 6.390625 -6.890625 L 3.859375 -3.09375 L 3.859375 0 L 2.28125 0 L 2.28125 -3.09375 Z M -0.25 -6.890625 "/></g></g></g><g fill="#399b53" fill-opacity="1"><g transform="translate(199.253153, 294.473868)"><g/></g></g><g fill="#399b53" fill-opacity="1"><g transform="translate(206.334449, 294.473868)"><g><path d="M 5.796875 -6.890625 L 5.796875 -2.4375 C 5.796875 -1.59375 5.566406 -0.953125 5.109375 -0.515625 C 4.648438 -0.0859375 3.976562 0.125 3.09375 0.125 C 2.21875 0.125 1.550781 -0.0859375 1.09375 -0.515625 C 0.644531 -0.953125 0.421875 -1.59375 0.421875 -2.4375 L 0.421875 -6.890625 L 1.984375 -6.890625 L 1.984375 -2.90625 C 1.984375 -2.34375 2.070312 -1.953125 2.25 -1.734375 C 2.425781 -1.523438 2.710938 -1.421875 3.109375 -1.421875 C 3.503906 -1.421875 3.785156 -1.523438 3.953125 -1.734375 C 4.128906 -1.953125 4.21875 -2.34375 4.21875 -2.90625 L 4.21875 -6.890625 Z M 5.796875 -6.890625 "/></g></g></g><g fill="#399b53" fill-opacity="1"><g transform="translate(217.347311, 294.473868)"><g><path d="M 0.5 -6.890625 L 3.015625 -6.890625 C 3.710938 -6.890625 4.273438 -6.707031 4.703125 -6.34375 C 5.140625 -5.976562 5.359375 -5.453125 5.359375 -4.765625 C 5.359375 -4.078125 5.140625 -3.535156 4.703125 -3.140625 C 4.265625 -2.742188 3.703125 -2.546875 3.015625 -2.546875 L 2.0625 -2.546875 L 2.0625 0 L 0.5 0 Z M 2.0625 -3.8125 L 2.515625 -3.8125 C 2.859375 -3.8125 3.144531 -3.878906 3.375 -4.015625 C 3.601562 -4.160156 3.71875 -4.394531 3.71875 -4.71875 C 3.71875 -5.039062 3.601562 -5.269531 3.375 -5.40625 C 3.144531 -5.550781 2.859375 -5.625 2.515625 -5.625 L 2.0625 -5.625 Z M 2.0625 -3.8125 "/></g></g></g><g fill="#399b53" fill-opacity="1"><g transform="translate(227.709091, 294.473868)"><g><path d="M 1.453125 -1.78125 C 1.722656 -1.78125 1.945312 -1.6875 2.125 -1.5 C 2.3125 -1.3125 2.40625 -1.085938 2.40625 -0.828125 C 2.40625 -0.566406 2.3125 -0.34375 2.125 -0.15625 C 1.945312 0.03125 1.722656 0.125 1.453125 0.125 C 1.191406 0.125 0.96875 0.03125 0.78125 -0.15625 C 0.59375 -0.34375 0.5 -0.566406 0.5 -0.828125 C 0.5 -1.085938 0.59375 -1.3125 0.78125 -1.5 C 0.96875 -1.6875 1.191406 -1.78125 1.453125 -1.78125 Z M 1.453125 -1.78125 "/></g></g></g></svg>