<svg xmlns="http://www.w3.org/2000/svg" xmlns:xlink="http://www.w3.org/1999/xlink" width="500" zoomAndPan="magnify" viewBox="0 0 375 374.999991" height="500" preserveAspectRatio="xMidYMid meet" version="1.0"><defs><clipPath id="f9c4780487"><path d="M 98 51 L 367.738281 51 L 367.738281 364.691406 L 98 364.691406 Z M 98 51 " clip-rule="nonzero"/></clipPath><clipPath id="d4da2bb2a5"><path d="M 261 9.941406 L 334 9.941406 L 334 83 L 261 83 Z M 261 9.941406 " clip-rule="nonzero"/></clipPath></defs><path fill="#399b53" d="M 26.617188 230.207031 L 7.128906 261.941406 C 43.453125 256.199219 73.007812 261.117188 95.730469 276.71875 C 79.21875 254.789062 56.167969 239.273438 26.585938 230.207031 Z M 26.617188 230.207031 " fill-opacity="1" fill-rule="evenodd"/><path fill="#000000" d="M 10.574219 213.578125 C 52.8125 219.257812 85.605469 240.011719 108.917969 275.804688 C 103.089844 239.65625 84.78125 210.871094 53.933594 189.382812 Z M 10.574219 213.578125 " fill-opacity="1" fill-rule="evenodd"/><path fill="#399b53" d="M 31.941406 154.175781 C 89.550781 191.324219 120.75 242.453125 125.578125 307.507812 C 135.203125 256.199219 120.839844 210.222656 82.542969 169.570312 C 114.628906 160.359375 139.355469 138.574219 156.691406 104.222656 C 213.886719 203.835938 195.664062 283.429688 102.03125 343.035156 C 220.625 301.945312 238.433594 176.664062 155.457031 65.25 C 136.96875 127.152344 95.820312 156.796875 31.972656 154.175781 Z M 31.941406 154.175781 " fill-opacity="1" fill-rule="evenodd"/><g clip-path="url(#f9c4780487)"><path fill="#000000" d="M 174 51.445312 C 272.785156 176.457031 241.378906 318.074219 98.585938 365.054688 C 248.296875 356.398438 338.046875 260.761719 367.894531 78.144531 C 328.507812 131.539062 263.867188 122.648438 174 51.445312 Z M 174 51.445312 " fill-opacity="1" fill-rule="evenodd"/></g><g clip-path="url(#d4da2bb2a5)"><path fill="#000000" d="M 297.484375 82.207031 C 317.382812 82.207031 333.628906 65.988281 333.628906 46.058594 C 333.628906 26.160156 317.410156 9.910156 297.484375 9.910156 C 277.585938 9.910156 261.335938 26.128906 261.335938 46.058594 C 261.335938 65.957031 277.585938 82.207031 297.484375 82.207031 Z M 297.484375 82.207031 " fill-opacity="1" fill-rule="evenodd"/></g><path fill="#399b53" d="M 157.8125 199.152344 C 158.988281 201.214844 158.371094 203.246094 155.898438 205.21875 L 151.277344 197.183594 C 153.160156 196.859375 154.601562 196.859375 155.542969 197.152344 C 156.484375 197.476562 157.25 198.125 157.839844 199.125 Z M 140.121094 190.351562 C 138.207031 190.675781 136.824219 190.675781 135.910156 190.351562 C 134.996094 190 134.292969 189.410156 133.789062 188.527344 C 133.261719 187.613281 133.113281 186.644531 133.378906 185.644531 C 133.644531 184.640625 134.378906 183.640625 135.675781 182.640625 L 140.148438 190.382812 Z M 165.933594 193.886719 C 164.082031 190.675781 161.609375 188.675781 158.515625 187.878906 C 155.425781 187.085938 151.363281 187.351562 146.332031 188.675781 L 141.328125 180.019531 C 142.710938 179.609375 144.183594 179.371094 145.710938 179.285156 C 147.242188 179.195312 148.804688 179.195312 150.394531 179.3125 L 150.363281 170.394531 C 148.15625 170.1875 145.976562 170.246094 143.828125 170.542969 C 141.679688 170.835938 139.5 171.425781 137.234375 172.308594 L 135.261719 168.863281 L 129.289062 172.308594 L 131.199219 175.632812 C 129.523438 176.871094 128.109375 178.195312 126.960938 179.667969 C 125.8125 181.109375 124.988281 182.640625 124.519531 184.230469 C 124.019531 185.820312 123.871094 187.410156 124.046875 189.058594 C 124.222656 190.675781 124.785156 192.296875 125.695312 193.914062 C 126.667969 195.59375 127.785156 196.917969 129.023438 197.917969 C 130.289062 198.890625 131.699219 199.566406 133.261719 199.949219 C 134.820312 200.332031 136.585938 200.417969 138.53125 200.214844 C 140.472656 200.035156 142.652344 199.625 145.066406 199.007812 L 150.332031 208.132812 C 148.421875 208.78125 146.507812 209.132812 144.566406 209.191406 C 142.652344 209.25 140.5625 209.160156 138.292969 208.867188 L 137.589844 217.992188 C 140.324219 218.347656 143.152344 218.316406 145.976562 217.90625 C 148.832031 217.492188 151.601562 216.757812 154.25 215.609375 L 157.605469 221.40625 L 163.578125 217.964844 L 160.3125 212.28125 C 162.050781 211.046875 163.460938 209.664062 164.609375 208.191406 C 165.757812 206.71875 166.554688 205.1875 167.054688 203.597656 C 167.554688 202.007812 167.699219 200.417969 167.554688 198.769531 C 167.40625 197.121094 166.847656 195.503906 165.933594 193.914062 Z M 165.933594 193.886719 " fill-opacity="1" fill-rule="evenodd"/></svg>